<?xml version="1.0" encoding="UTF-8"?>
<svg id="Layer_2" data-name="Layer 2" xmlns="http://www.w3.org/2000/svg" viewBox="0 0 595.09 595.09">
  <defs>
    <style>
      .cls-1 {
        fill: #0211f0;
      }

      .cls-2 {
        fill: #fff;
      }
    </style>
  </defs>
  <g id="Layer_1-2" data-name="Layer 1">
    <g>
      <circle class="cls-1" cx="297.55" cy="297.55" r="297.55"/>
      <path class="cls-2" d="M464.8,134.45c10.84-2.99,22.05,3.38,25.04,14.22,1.05,3.8.97,7.82-.22,11.57l-.99,2.49-165.44,352.42c-6.22,10.51-17.97,16.46-30.11,15.3-10.92-1-20.52-7.67-25.26-17.57l-44.25-139c-1.56-4.91-4.99-9.01-9.54-11.42l-128.57-68.02c-9.83-5.34-16.06-15.52-16.34-26.7l.09-3.06c.79-11.26,7.56-21.17,19.08-26.53l2.95-1.24s373.57-102.47,373.57-102.47Z"/>
    </g>
  </g>
</svg>